<?xml version="1.0" standalone="no"?>
<!DOCTYPE svg PUBLIC "-//W3C//DTD SVG 20010904//EN"
 "http://www.w3.org/TR/2001/REC-SVG-20010904/DTD/svg10.dtd">
<svg version="1.0" xmlns="http://www.w3.org/2000/svg"
 width="1194.000000pt" height="1194.000000pt" viewBox="0 0 1194.000000 1194.000000"
 preserveAspectRatio="xMidYMid meet">
<metadata>
Created by potrace 1.11, written by Peter Selinger 2001-2013
</metadata>
<g transform="translate(0.000000,1194.000000) scale(0.100000,-0.100000)"
fill="#000000" stroke="none">
<path d="M5725 11750 c-838 -59 -1610 -376 -2236 -918 -127 -110 -339 -325
-440 -447 -440 -532 -736 -1182 -843 -1855 -54 -334 -51 -116 -51 -4245 l0
-3850 26 -56 c100 -213 384 -261 540 -92 55 60 77 114 95 231 42 285 174 703
322 1029 391 853 1108 1578 1987 2008 365 178 739 310 1520 535 619 179 740
222 1033 369 1024 513 1774 1485 2021 2618 209 962 40 1989 -467 2828 -312
517 -761 971 -1272 1287 -479 296 -1029 484 -1584 543 -183 19 -493 26 -651
15z m-94 -620 c253 -47 409 -294 344 -545 -85 -328 -512 -436 -746 -188 -73
77 -112 166 -117 271 -10 190 80 347 244 424 96 45 177 56 275 38z m-1091 -15
c43 -22 61 -55 130 -238 35 -92 66 -164 70 -160 4 4 35 85 70 178 70 185 93
219 158 231 48 9 109 -13 136 -49 43 -58 32 -102 -104 -432 -136 -329 -159
-366 -234 -380 -50 -10 -108 8 -143 45 -34 36 -283 638 -283 684 0 98 112 166
200 121z m2084 -16 c53 -42 68 -100 42 -164 -22 -52 -68 -75 -148 -75 l-68 0
0 -247 c0 -228 -2 -251 -20 -280 -24 -39 -67 -63 -115 -63 -49 0 -88 25 -114
70 -20 35 -21 53 -21 279 l0 241 -60 0 c-68 0 -108 16 -139 56 -25 32 -28 101
-6 144 29 57 44 59 346 60 265 0 277 -1 303 -21z m686 6 c78 -41 80 -169 3
-221 -24 -16 -52 -19 -180 -22 -122 -3 -153 -7 -153 -18 0 -11 25 -14 128 -14
145 0 176 -11 205 -73 29 -59 17 -105 -38 -157 -25 -24 -34 -25 -161 -28 -124
-3 -134 -5 -134 -23 0 -18 9 -19 153 -19 169 0 188 -5 225 -60 47 -69 8 -166
-78 -191 -21 -6 -120 -9 -255 -7 -244 3 -256 6 -295 71 -19 30 -20 52 -20 355
0 357 1 365 63 402 29 18 52 20 270 20 193 0 244 -3 267 -15z m105 -1085 c623
-133 1074 -533 1277 -1130 206 -607 175 -1416 -79 -2059 -257 -651 -745 -1220
-1381 -1608 -132 -81 -488 -258 -625 -312 -200 -78 -325 -99 -401 -67 -45 19
-101 76 -130 134 -22 44 -176 441 -217 561 -27 76 -25 157 4 212 38 71 88 101
254 154 609 194 1025 482 1202 832 17 34 31 64 31 66 0 3 -42 -6 -92 -19 -406
-103 -775 -72 -1123 96 -144 70 -244 139 -359 251 -170 163 -280 338 -355 564
-134 402 -136 873 -6 1263 191 569 710 965 1410 1077 136 22 458 14 590 -15z
m-2427 -99 c47 -24 77 -56 97 -103 13 -33 15 -287 15 -2373 0 -2579 5 -2372
-63 -2443 -57 -59 -82 -62 -557 -62 -475 0 -500 3 -557 62 -68 70 -63 -57 -63
1687 l0 1580 -302 4 c-335 4 -356 7 -419 64 -75 68 -83 94 -87 298 -7 308 20
436 106 504 20 16 259 203 531 415 l494 386 384 0 c358 0 386 -1 421 -19z"/>
<path d="M5470 10851 c-45 -24 -80 -89 -80 -151 0 -98 67 -170 160 -170 62 0
110 28 137 80 29 55 29 113 1 170 -43 84 -137 115 -218 71z"/>
<path d="M6892 8864 c-191 -51 -353 -205 -413 -394 -28 -86 -30 -240 -5 -324
77 -260 298 -429 561 -430 174 -1 305 53 424 173 117 117 171 246 171 406 0
165 -57 301 -172 417 -75 74 -189 137 -286 157 -73 15 -216 13 -280 -5z"/>
</g>
</svg>
